<svg xmlns="http://www.w3.org/2000/svg" width="1120" height="560" viewBox="0 0 1120 560">
<rect x="0.0" y="0.0" width="1120.0" height="560.0" rx="0" fill="#FCFCFD"/>
<text x="42.0" y="44.0" font-family="Inter, Aptos, Segoe UI, Arial, sans-serif" font-size="24" font-weight="700" text-anchor="start" fill="#1F2430">Lead time and adjustment rate trend</text>
<text x="42.0" y="72.0" font-family="Inter, Aptos, Segoe UI, Arial, sans-serif" font-size="13" font-weight="400" text-anchor="start" fill="#6F768A">Monthly average lead time and total adjustment rate from the recap workbook.</text>
<line x1="42.0" y1="91.0" x2="1078.0" y2="91.0" stroke="#E6E8F0" stroke-width="1"/>
<line x1="72.0" y1="444.0" x2="1056.0" y2="444.0" stroke="#E6E8F0" stroke-width="1" stroke-dasharray="3 5"/>
<text x="60.0" y="448.0" font-family="Menlo, Consolas, monospace" font-size="12" font-weight="400" text-anchor="end" fill="#6F768A">14h</text>
<line x1="72.0" y1="376.1" x2="1056.0" y2="376.1" stroke="#E6E8F0" stroke-width="1" stroke-dasharray="3 5"/>
<text x="60.0" y="380.1" font-family="Menlo, Consolas, monospace" font-size="12" font-weight="400" text-anchor="end" fill="#6F768A">15h</text>
<line x1="72.0" y1="308.2" x2="1056.0" y2="308.2" stroke="#E6E8F0" stroke-width="1" stroke-dasharray="3 5"/>
<text x="60.0" y="312.2" font-family="Menlo, Consolas, monospace" font-size="12" font-weight="400" text-anchor="end" fill="#6F768A">16h</text>
<line x1="72.0" y1="240.3" x2="1056.0" y2="240.3" stroke="#E6E8F0" stroke-width="1" stroke-dasharray="3 5"/>
<text x="60.0" y="244.3" font-family="Menlo, Consolas, monospace" font-size="12" font-weight="400" text-anchor="end" fill="#6F768A">17h</text>
<line x1="72.0" y1="172.3" x2="1056.0" y2="172.3" stroke="#E6E8F0" stroke-width="1" stroke-dasharray="3 5"/>
<text x="60.0" y="176.3" font-family="Menlo, Consolas, monospace" font-size="12" font-weight="400" text-anchor="end" fill="#6F768A">18h</text>
<line x1="72.0" y1="478.0" x2="1056.0" y2="478.0" stroke="#D7DBE7" stroke-width="1"/>
<line x1="72.0" y1="118.0" x2="72.0" y2="478.0" stroke="#D7DBE7" stroke-width="1"/>
<polyline points="72.0,149.5 181.3,269.1 290.7,321.3 400.0,352.1 509.3,294.5 618.7,367.9 728.0,416.9 837.3,408.4 946.7,444.0 1056.0,444.0" fill="none" stroke="#5477C4" stroke-width="2.8" stroke-linejoin="round" stroke-linecap="round"/>
<polyline points="72.0,198.2 181.3,144.0 290.7,393.4 400.0,414.0 509.3,355.0 618.7,453.7 728.0,464.4 837.3,402.7 946.7,454.1 1056.0,450.2" fill="none" stroke="#CC6F47" stroke-width="2.4" stroke-linejoin="round" stroke-linecap="round" stroke-dasharray="6 5"/>
<circle cx="72.0" cy="149.5" r="4.0" fill="#5477C4" opacity="1" stroke="#FFFFFF" stroke-width="1.4"/>
<circle cx="181.3" cy="269.1" r="4.0" fill="#5477C4" opacity="1" stroke="#FFFFFF" stroke-width="1.4"/>
<circle cx="290.7" cy="321.3" r="4.0" fill="#5477C4" opacity="1" stroke="#FFFFFF" stroke-width="1.4"/>
<circle cx="400.0" cy="352.1" r="4.0" fill="#5477C4" opacity="1" stroke="#FFFFFF" stroke-width="1.4"/>
<circle cx="509.3" cy="294.5" r="4.0" fill="#5477C4" opacity="1" stroke="#FFFFFF" stroke-width="1.4"/>
<circle cx="618.7" cy="367.9" r="4.0" fill="#5477C4" opacity="1" stroke="#FFFFFF" stroke-width="1.4"/>
<circle cx="728.0" cy="416.9" r="4.0" fill="#5477C4" opacity="1" stroke="#FFFFFF" stroke-width="1.4"/>
<circle cx="837.3" cy="408.4" r="4.0" fill="#5477C4" opacity="1" stroke="#FFFFFF" stroke-width="1.4"/>
<circle cx="946.7" cy="444.0" r="4.0" fill="#5477C4" opacity="1" stroke="#FFFFFF" stroke-width="1.4"/>
<circle cx="1056.0" cy="444.0" r="4.0" fill="#5477C4" opacity="1" stroke="#FFFFFF" stroke-width="1.4"/>
<circle cx="72.0" cy="198.2" r="3.8" fill="#CC6F47" opacity="1" stroke="#FFFFFF" stroke-width="1.2"/>
<circle cx="181.3" cy="144.0" r="3.8" fill="#CC6F47" opacity="1" stroke="#FFFFFF" stroke-width="1.2"/>
<circle cx="290.7" cy="393.4" r="3.8" fill="#CC6F47" opacity="1" stroke="#FFFFFF" stroke-width="1.2"/>
<circle cx="400.0" cy="414.0" r="3.8" fill="#CC6F47" opacity="1" stroke="#FFFFFF" stroke-width="1.2"/>
<circle cx="509.3" cy="355.0" r="3.8" fill="#CC6F47" opacity="1" stroke="#FFFFFF" stroke-width="1.2"/>
<circle cx="618.7" cy="453.7" r="3.8" fill="#CC6F47" opacity="1" stroke="#FFFFFF" stroke-width="1.2"/>
<circle cx="728.0" cy="464.4" r="3.8" fill="#CC6F47" opacity="1" stroke="#FFFFFF" stroke-width="1.2"/>
<circle cx="837.3" cy="402.7" r="3.8" fill="#CC6F47" opacity="1" stroke="#FFFFFF" stroke-width="1.2"/>
<circle cx="946.7" cy="454.1" r="3.8" fill="#CC6F47" opacity="1" stroke="#FFFFFF" stroke-width="1.2"/>
<circle cx="1056.0" cy="450.2" r="3.8" fill="#CC6F47" opacity="1" stroke="#FFFFFF" stroke-width="1.2"/>
<text x="72.0" y="508.0" font-family="Menlo, Consolas, monospace" font-size="12" font-weight="400" text-anchor="middle" fill="#6F768A">08</text>
<text x="181.3" y="508.0" font-family="Menlo, Consolas, monospace" font-size="12" font-weight="400" text-anchor="middle" fill="#6F768A">09</text>
<text x="290.7" y="508.0" font-family="Menlo, Consolas, monospace" font-size="12" font-weight="400" text-anchor="middle" fill="#6F768A">10</text>
<text x="400.0" y="508.0" font-family="Menlo, Consolas, monospace" font-size="12" font-weight="400" text-anchor="middle" fill="#6F768A">11</text>
<text x="509.3" y="508.0" font-family="Menlo, Consolas, monospace" font-size="12" font-weight="400" text-anchor="middle" fill="#6F768A">12</text>
<text x="618.7" y="508.0" font-family="Menlo, Consolas, monospace" font-size="12" font-weight="400" text-anchor="middle" fill="#6F768A">01</text>
<text x="728.0" y="508.0" font-family="Menlo, Consolas, monospace" font-size="12" font-weight="400" text-anchor="middle" fill="#6F768A">02</text>
<text x="837.3" y="508.0" font-family="Menlo, Consolas, monospace" font-size="12" font-weight="400" text-anchor="middle" fill="#6F768A">03</text>
<text x="946.7" y="508.0" font-family="Menlo, Consolas, monospace" font-size="12" font-weight="400" text-anchor="middle" fill="#6F768A">04</text>
<text x="1056.0" y="508.0" font-family="Menlo, Consolas, monospace" font-size="12" font-weight="400" text-anchor="middle" fill="#6F768A">05</text>
<rect x="842.0" y="112.0" width="206.0" height="62.0" rx="8" fill="#FFFFFF" stroke="#E6E8F0" stroke-width="1"/>
<line x1="866.0" y1="134.0" x2="902.0" y2="134.0" stroke="#5477C4" stroke-width="3"/>
<text x="914.0" y="139.0" font-family="Inter, Aptos, Segoe UI, Arial, sans-serif" font-size="13" font-weight="400" text-anchor="start" fill="#1F2430">Avg lead time</text>
<line x1="866.0" y1="158.0" x2="902.0" y2="158.0" stroke="#CC6F47" stroke-width="3" stroke-dasharray="6 5"/>
<text x="914.0" y="163.0" font-family="Inter, Aptos, Segoe UI, Arial, sans-serif" font-size="13" font-weight="400" text-anchor="start" fill="#1F2430">Adjustment rate</text>
<line x1="892.0" y1="104.0" x2="892.0" y2="478.0" stroke="#464C55" stroke-width="1.2" stroke-dasharray="4 5"/>
<text x="900.0" y="98.0" font-family="Inter, Aptos, Segoe UI, Arial, sans-serif" font-size="12" font-weight="400" text-anchor="start" fill="#464C55">Automatic starts: 12 Mar 2026</text>
<text x="72.0" y="538.0" font-family="Inter, Aptos, Segoe UI, Arial, sans-serif" font-size="12" font-weight="400" text-anchor="start" fill="#6F768A">Left axis: average disbursement hour. Orange line is scaled to the same plot area for shape comparison; exact adjustment rates are labeled in the Obsidian note.</text>
</svg>
